<?xml version="1.0" encoding="utf-8"?>
<!-- Generator: Adobe Illustrator 25.2.1, SVG Export Plug-In . SVG Version: 6.00 Build 0)  -->
<svg version="1.1" xmlns="http://www.w3.org/2000/svg" xmlns:xlink="http://www.w3.org/1999/xlink" x="0px" y="0px"
	 viewBox="0 0 1080 1080" style="enable-background:new 0 0 1080 1080;" xml:space="preserve">
<style type="text/css">
	.st0{fill:#5B032B;}
	.st1{fill:#FFFFFF;}
</style>
<g id="Layer_1">
</g>
<g id="CEDARVILLE_LOGO">
	<rect class="st0" width="1080" height="1080"/>
	<g>
		<path class="st1" d="M736.27,590.84c0.68,33.17-22.87,170.64-177.47,170.64c-155.59,0-215.09-122.97-215.09-220.9
			s59.5-222.04,215.09-222.04c154.6,0,178.16,137.47,177.47,170.63H634.02c-0.23-30.55-17.33-76.71-80.02-76.71
			c-71.7,0-89.63,85.89-89.63,127.55S482.31,667.55,554,667.55c62.69,0,79.79-46.16,80.02-76.71H736.27z"/>
	</g>
	<path class="st1" d="M762.21,590.15v214.52H590.1v34.2h206.31V590.15H762.21z M317.79,590.15h-34.2v248.71h206.2v-34.2h-172V590.15
		z M283.59,241.13v248.71h34.2V275.33h172v-34.2H283.59z M590.1,241.13v34.2h172.12v214.52h34.2V241.13H590.1z"/>
	<rect x="489.79" y="195.53" class="st1" width="100.31" height="45.61"/>
	<rect x="489.79" y="838.87" class="st1" width="100.31" height="45.61"/>
	
		<rect x="210.64" y="517.2" transform="matrix(-1.836970e-16 1 -1 -1.836970e-16 800.7888 279.2112)" class="st1" width="100.31" height="45.61"/>
	
		<rect x="769.06" y="517.2" transform="matrix(-1.836970e-16 1 -1 -1.836970e-16 1359.2112 -279.2112)" class="st1" width="100.31" height="45.61"/>
</g>
</svg>
